{
    "asset" : {
        "generator" : "Khronos glTF Blender I/O v1.8.19",
        "version" : "2.0"
    },
    "scene" : 0,
    "scenes" : [
        {
            "name" : "Scene",
            "nodes" : [
                2
            ]
        }
    ],
    "nodes" : [
        {
            "mesh" : 0,
            "name" : "Sphere.003",
            "scale" : [
                4.744539260864258,
                4.744539260864258,
                3.4892501831054688
            ],
            "translation" : [
                -0.020810917019844055,
                -0.31775233149528503,
                0
            ]
        },
        {
            "mesh" : 1,
            "name" : "Sphere.004",
            "scale" : [
                3.861447334289551,
                4.603935241699219,
                3.861447334289551
            ],
            "translation" : [
                0.07828155905008316,
                0,
                0
            ]
        },
        {
            "children" : [
                0,
                1
            ],
            "mesh" : 2,
            "name" : "Sphere",
            "rotation" : [
                0,
                -0.7071068286895752,
                0,
                0.7071068286895752
            ],
            "scale" : [
                0,
                0,
                0
            ]
        }
    ],
    "animations" : [
        {
            "channels" : [
                {
                    "sampler" : 0,
                    "target" : {
                        "node" : 2,
                        "path" : "scale"
                    }
                }
            ],
            "name" : "SphereAction.001",
            "samplers" : [
                {
                    "input" : 12,
                    "interpolation" : "LINEAR",
                    "output" : 13
                }
            ]
        },
        {
            "channels" : [
                {
                    "sampler" : 0,
                    "target" : {
                        "node" : 0,
                        "path" : "scale"
                    }
                }
            ],
            "name" : "Sphere.003Action.001",
            "samplers" : [
                {
                    "input" : 14,
                    "interpolation" : "STEP",
                    "output" : 15
                }
            ]
        },
        {
            "channels" : [
                {
                    "sampler" : 0,
                    "target" : {
                        "node" : 1,
                        "path" : "scale"
                    }
                }
            ],
            "name" : "Sphere.004Action",
            "samplers" : [
                {
                    "input" : 14,
                    "interpolation" : "STEP",
                    "output" : 16
                }
            ]
        }
    ],
    "materials" : [
        {
            "doubleSided" : true,
            "name" : "Material.004",
            "pbrMetallicRoughness" : {
                "baseColorFactor" : [
                    0,
                    0,
                    0,
                    1
                ],
                "metallicFactor" : 0,
                "roughnessFactor" : 0.5
            }
        },
        {
            "doubleSided" : true,
            "name" : "Material.005",
            "pbrMetallicRoughness" : {
                "baseColorFactor" : [
                    0,
                    0,
                    0,
                    1
                ],
                "metallicFactor" : 0,
                "roughnessFactor" : 0.5
            }
        },
        {
            "doubleSided" : true,
            "name" : "Material.001",
            "pbrMetallicRoughness" : {
                "baseColorFactor" : [
                    0.8000000715255737,
                    0.4766198396682739,
                    0,
                    1
                ],
                "metallicFactor" : 0,
                "roughnessFactor" : 0.5
            }
        }
    ],
    "meshes" : [
        {
            "name" : "Sphere.003",
            "primitives" : [
                {
                    "attributes" : {
                        "POSITION" : 0,
                        "NORMAL" : 1,
                        "TEXCOORD_0" : 2
                    },
                    "indices" : 3,
                    "material" : 0
                }
            ]
        },
        {
            "name" : "Sphere.004",
            "primitives" : [
                {
                    "attributes" : {
                        "POSITION" : 4,
                        "NORMAL" : 5,
                        "TEXCOORD_0" : 6
                    },
                    "indices" : 7,
                    "material" : 1
                }
            ]
        },
        {
            "name" : "Sphere",
            "primitives" : [
                {
                    "attributes" : {
                        "POSITION" : 8,
                        "NORMAL" : 9,
                        "TEXCOORD_0" : 10
                    },
                    "indices" : 11,
                    "material" : 2
                }
            ]
        }
    ],
    "accessors" : [
        {
            "bufferView" : 0,
            "componentType" : 5126,
            "count" : 200,
            "max" : [
                0.1737811118364334,
                0.37522199749946594,
                0.40395841002464294
            ],
            "min" : [
                0,
                0,
                -0.4040992558002472
            ],
            "type" : "VEC3"
        },
        {
            "bufferView" : 1,
            "componentType" : 5126,
            "count" : 200,
            "type" : "VEC3"
        },
        {
            "bufferView" : 2,
            "componentType" : 5126,
            "count" : 200,
            "type" : "VEC2"
        },
        {
            "bufferView" : 3,
            "componentType" : 5123,
            "count" : 1152,
            "type" : "SCALAR"
        },
        {
            "bufferView" : 4,
            "componentType" : 5126,
            "count" : 1252,
            "max" : [
                0.1846744269132614,
                0,
                0.6043483018875122
            ],
            "min" : [
                0,
                -0.4213363528251648,
                -0.6043483018875122
            ],
            "type" : "VEC3"
        },
        {
            "bufferView" : 5,
            "componentType" : 5126,
            "count" : 1252,
            "type" : "VEC3"
        },
        {
            "bufferView" : 6,
            "componentType" : 5126,
            "count" : 1252,
            "type" : "VEC2"
        },
        {
            "bufferView" : 7,
            "componentType" : 5123,
            "count" : 7584,
            "type" : "SCALAR"
        },
        {
            "bufferView" : 8,
            "componentType" : 5126,
            "count" : 16810,
            "max" : [
                0.18796199560165405,
                0.9980910420417786,
                0.9898940920829773
            ],
            "min" : [
                -0.18796199560165405,
                -0.9980910420417786,
                -0.9898945093154907
            ],
            "type" : "VEC3"
        },
        {
            "bufferView" : 9,
            "componentType" : 5126,
            "count" : 16810,
            "type" : "VEC3"
        },
        {
            "bufferView" : 10,
            "componentType" : 5126,
            "count" : 16810,
            "type" : "VEC2"
        },
        {
            "bufferView" : 11,
            "componentType" : 5123,
            "count" : 91104,
            "type" : "SCALAR"
        },
        {
            "bufferView" : 12,
            "componentType" : 5126,
            "count" : 250,
            "max" : [
                8.333333333333334
            ],
            "min" : [
                0.03333333333333333
            ],
            "type" : "SCALAR"
        },
        {
            "bufferView" : 13,
            "componentType" : 5126,
            "count" : 250,
            "type" : "VEC3"
        },
        {
            "bufferView" : 14,
            "componentType" : 5126,
            "count" : 1,
            "max" : [
                2.3
            ],
            "min" : [
                2.3
            ],
            "type" : "SCALAR"
        },
        {
            "bufferView" : 15,
            "componentType" : 5126,
            "count" : 1,
            "type" : "VEC3"
        },
        {
            "bufferView" : 16,
            "componentType" : 5126,
            "count" : 1,
            "type" : "VEC3"
        }
    ],
    "bufferViews" : [
        {
            "buffer" : 0,
            "byteLength" : 2400,
            "byteOffset" : 0
        },
        {
            "buffer" : 0,
            "byteLength" : 2400,
            "byteOffset" : 2400
        },
        {
            "buffer" : 0,
            "byteLength" : 1600,
            "byteOffset" : 4800
        },
        {
            "buffer" : 0,
            "byteLength" : 2304,
            "byteOffset" : 6400
        },
        {
            "buffer" : 0,
            "byteLength" : 15024,
            "byteOffset" : 8704
        },
        {
            "buffer" : 0,
            "byteLength" : 15024,
            "byteOffset" : 23728
        },
        {
            "buffer" : 0,
            "byteLength" : 10016,
            "byteOffset" : 38752
        },
        {
            "buffer" : 0,
            "byteLength" : 15168,
            "byteOffset" : 48768
        },
        {
            "buffer" : 0,
            "byteLength" : 201720,
            "byteOffset" : 63936
        },
        {
            "buffer" : 0,
            "byteLength" : 201720,
            "byteOffset" : 265656
        },
        {
            "buffer" : 0,
            "byteLength" : 134480,
            "byteOffset" : 467376
        },
        {
            "buffer" : 0,
            "byteLength" : 182208,
            "byteOffset" : 601856
        },
        {
            "buffer" : 0,
            "byteLength" : 1000,
            "byteOffset" : 784064
        },
        {
            "buffer" : 0,
            "byteLength" : 3000,
            "byteOffset" : 785064
        },
        {
            "buffer" : 0,
            "byteLength" : 4,
            "byteOffset" : 788064
        },
        {
            "buffer" : 0,
            "byteLength" : 12,
            "byteOffset" : 788068
        },
        {
            "buffer" : 0,
            "byteLength" : 12,
            "byteOffset" : 788080
        }
    ],
    "buffers" : [
        {
            "byteLength" : 788092,
            "uri" : "data:application/octet-stream;base64,"
        }
    ]
}
