{
    "asset" : {
        "generator" : "Khronos glTF Blender I/O v1.8.19",
        "version" : "2.0"
    },
    "scene" : 0,
    "scenes" : [
        {
            "name" : "Scene",
            "nodes" : [
                11
            ]
        }
    ],
    "nodes" : [
        {
            "name" : "headCtrl",
            "translation" : [
                0.00390470027923584,
                -0.04728369042277336,
                1.9646111726760864
            ]
        },
        {
            "name" : "head",
            "rotation" : [
                -2.9802322387695312e-08,
                1.1920927533992653e-07,
                4.235164736271502e-22,
                1
            ],
            "scale" : [
                1,
                0.9999998807907104,
                0.9999998807907104
            ],
            "translation" : [
                0,
                0.23422782123088837,
                0
            ]
        },
        {
            "name" : "L.arm",
            "rotation" : [
                -0.020531175658106804,
                4.287786126155879e-08,
                -1.1952192568998043e-09,
                0.9997892379760742
            ],
            "translation" : [
                5.659014415111772e-15,
                0.23823754489421844,
                1.5194473235169426e-08
            ]
        },
        {
            "children" : [
                2
            ],
            "name" : "Bone.001",
            "rotation" : [
                -0.636326253414154,
                0.30836495757102966,
                0.6363261938095093,
                0.30836501717567444
            ],
            "scale" : [
                1,
                1,
                0.9999998807907104
            ],
            "translation" : [
                1.1695667545552624e-08,
                0.23422785103321075,
                8.881784197001252e-16
            ]
        },
        {
            "name" : "R.arm",
            "rotation" : [
                -0.13497069478034973,
                3.977232410079523e-08,
                2.4179493962606102e-08,
                0.9908496141433716
            ],
            "scale" : [
                1.0000001192092896,
                1.0000001192092896,
                1.000000238418579
            ],
            "translation" : [
                -1.7763568394002505e-15,
                0.20397228002548218,
                7.77156223116728e-16
            ]
        },
        {
            "children" : [
                4
            ],
            "name" : "Bone.003",
            "rotation" : [
                -0.6054770350456238,
                -0.3652365207672119,
                -0.6054768562316895,
                0.3652365207672119
            ],
            "scale" : [
                1,
                0.9999999403953552,
                1
            ],
            "translation" : [
                -3.5948444221389764e-10,
                0.23422782123088837,
                8.881784197001252e-16
            ]
        },
        {
            "name" : "body",
            "rotation" : [
                -0.707121729850769,
                0.0010713465744629502,
                0.7070901989936829,
                0.0010713872034102678
            ],
            "scale" : [
                1,
                0.9999999403953552,
                1
            ],
            "translation" : [
                5.820739723549906e-11,
                0.23422783613204956,
                4.279115581838633e-15
            ]
        },
        {
            "mesh" : 0,
            "name" : "LHand",
            "skin" : 0
        },
        {
            "mesh" : 1,
            "name" : "monsterBody",
            "skin" : 0
        },
        {
            "mesh" : 2,
            "name" : "monsterHead1",
            "skin" : 0
        },
        {
            "mesh" : 3,
            "name" : "RHand",
            "skin" : 0
        },
        {
            "children" : [
                0,
                7,
                8,
                9,
                10,
                1,
                3,
                5,
                6
            ],
            "name" : "Armature",
            "translation" : [
                -0.00390470027923584,
                0.04728369042277336,
                0.035388845950365067
            ]
        }
    ],
    "animations" : [
        {
            "channels" : [
                {
                    "sampler" : 0,
                    "target" : {
                        "node" : 1,
                        "path" : "translation"
                    }
                },
                {
                    "sampler" : 1,
                    "target" : {
                        "node" : 1,
                        "path" : "rotation"
                    }
                }
            ],
            "name" : "ArmatureAction.001",
            "samplers" : [
                {
                    "input" : 22,
                    "interpolation" : "LINEAR",
                    "output" : 23
                },
                {
                    "input" : 24,
                    "interpolation" : "LINEAR",
                    "output" : 25
                }
            ]
        }
    ],
    "materials" : [
        {
            "alphaMode" : "BLEND",
            "doubleSided" : true,
            "name" : "LHand",
            "pbrMetallicRoughness" : {
                "baseColorTexture" : {
                    "index" : 0
                },
                "metallicFactor" : 0,
                "roughnessFactor" : 0.5
            }
        },
        {
            "alphaMode" : "BLEND",
            "doubleSided" : true,
            "name" : "monsterBody",
            "pbrMetallicRoughness" : {
                "baseColorTexture" : {
                    "index" : 1
                },
                "metallicFactor" : 0,
                "roughnessFactor" : 0.5
            }
        },
        {
            "alphaMode" : "BLEND",
            "doubleSided" : true,
            "name" : "monsterHead1",
            "pbrMetallicRoughness" : {
                "baseColorTexture" : {
                    "index" : 2
                },
                "metallicFactor" : 0,
                "roughnessFactor" : 0.5
            }
        },
        {
            "alphaMode" : "BLEND",
            "doubleSided" : true,
            "name" : "RHand",
            "pbrMetallicRoughness" : {
                "baseColorTexture" : {
                    "index" : 3
                },
                "metallicFactor" : 0,
                "roughnessFactor" : 0.5
            }
        }
    ],
    "meshes" : [
        {
            "name" : "LHand",
            "primitives" : [
                {
                    "attributes" : {
                        "POSITION" : 0,
                        "NORMAL" : 1,
                        "TEXCOORD_0" : 2,
                        "JOINTS_0" : 3,
                        "WEIGHTS_0" : 4
                    },
                    "indices" : 5,
                    "material" : 0
                }
            ]
        },
        {
            "name" : "monsterBody",
            "primitives" : [
                {
                    "attributes" : {
                        "POSITION" : 7,
                        "NORMAL" : 8,
                        "TEXCOORD_0" : 9,
                        "JOINTS_0" : 10,
                        "WEIGHTS_0" : 11
                    },
                    "indices" : 5,
                    "material" : 1
                }
            ]
        },
        {
            "name" : "monsterHead1",
            "primitives" : [
                {
                    "attributes" : {
                        "POSITION" : 12,
                        "NORMAL" : 13,
                        "TEXCOORD_0" : 14,
                        "JOINTS_0" : 15,
                        "WEIGHTS_0" : 16
                    },
                    "indices" : 5,
                    "material" : 2
                }
            ]
        },
        {
            "name" : "RHand.001",
            "primitives" : [
                {
                    "attributes" : {
                        "POSITION" : 17,
                        "NORMAL" : 18,
                        "TEXCOORD_0" : 19,
                        "JOINTS_0" : 20,
                        "WEIGHTS_0" : 21
                    },
                    "indices" : 5,
                    "material" : 3
                }
            ]
        }
    ],
    "textures" : [
        {
            "sampler" : 0,
            "source" : 0
        },
        {
            "sampler" : 0,
            "source" : 1
        },
        {
            "sampler" : 0,
            "source" : 2
        },
        {
            "sampler" : 0,
            "source" : 3
        }
    ],
    "images" : [
        {
            "bufferView" : 6,
            "mimeType" : "image/png",
            "name" : "LHand"
        },
        {
            "bufferView" : 13,
            "mimeType" : "image/png",
            "name" : "monsterBody"
        },
        {
            "bufferView" : 19,
            "mimeType" : "image/png",
            "name" : "monsterHead1"
        },
        {
            "bufferView" : 25,
            "mimeType" : "image/png",
            "name" : "RHand"
        }
    ],
    "skins" : [
        {
            "inverseBindMatrices" : 6,
            "joints" : [
                1,
                3,
                2,
                5,
                4,
                6
            ],
            "name" : "Armature"
        }
    ],
    "accessors" : [
        {
            "bufferView" : 0,
            "componentType" : 5126,
            "count" : 4,
            "max" : [
                -0.21920299530029297,
                0.3308049440383911,
                0.010000020265579224
            ],
            "min" : [
                -0.5824293494224548,
                -0.20658379793167114,
                0.009999996051192284
            ],
            "type" : "VEC3"
        },
        {
            "bufferView" : 1,
            "componentType" : 5126,
            "count" : 4,
            "type" : "VEC3"
        },
        {
            "bufferView" : 2,
            "componentType" : 5126,
            "count" : 4,
            "type" : "VEC2"
        },
        {
            "bufferView" : 3,
            "componentType" : 5121,
            "count" : 4,
            "type" : "VEC4"
        },
        {
            "bufferView" : 4,
            "componentType" : 5126,
            "count" : 4,
            "type" : "VEC4"
        },
        {
            "bufferView" : 5,
            "componentType" : 5123,
            "count" : 6,
            "type" : "SCALAR"
        },
        {
            "bufferView" : 7,
            "componentType" : 5126,
            "count" : 6,
            "type" : "MAT4"
        },
        {
            "bufferView" : 8,
            "componentType" : 5126,
            "count" : 4,
            "max" : [
                0.28497299551963806,
                0.19264176487922668,
                -6.581466749366882e-08
            ],
            "min" : [
                -0.32433900237083435,
                -0.7044000029563904,
                -1.0502561309522207e-07
            ],
            "type" : "VEC3"
        },
        {
            "bufferView" : 9,
            "componentType" : 5126,
            "count" : 4,
            "type" : "VEC3"
        },
        {
            "bufferView" : 10,
            "componentType" : 5126,
            "count" : 4,
            "type" : "VEC2"
        },
        {
            "bufferView" : 11,
            "componentType" : 5121,
            "count" : 4,
            "type" : "VEC4"
        },
        {
            "bufferView" : 12,
            "componentType" : 5126,
            "count" : 4,
            "type" : "VEC4"
        },
        {
            "bufferView" : 14,
            "componentType" : 5126,
            "count" : 4,
            "max" : [
                0.5298272967338562,
                1.0149075984954834,
                2.1855694143368964e-08
            ],
            "min" : [
                -0.5298272967338562,
                0.014907598495483398,
                -2.1855694143368964e-08
            ],
            "type" : "VEC3"
        },
        {
            "bufferView" : 15,
            "componentType" : 5126,
            "count" : 4,
            "type" : "VEC3"
        },
        {
            "bufferView" : 16,
            "componentType" : 5126,
            "count" : 4,
            "type" : "VEC2"
        },
        {
            "bufferView" : 17,
            "componentType" : 5121,
            "count" : 4,
            "type" : "VEC4"
        },
        {
            "bufferView" : 18,
            "componentType" : 5126,
            "count" : 4,
            "type" : "VEC4"
        },
        {
            "bufferView" : 20,
            "componentType" : 5126,
            "count" : 4,
            "max" : [
                0.5555592775344849,
                0.38702392578125,
                0.010000026784837246
            ],
            "min" : [
                0.15883368253707886,
                -0.16657422482967377,
                0.010000002570450306
            ],
            "type" : "VEC3"
        },
        {
            "bufferView" : 21,
            "componentType" : 5126,
            "count" : 4,
            "type" : "VEC3"
        },
        {
            "bufferView" : 22,
            "componentType" : 5126,
            "count" : 4,
            "type" : "VEC2"
        },
        {
            "bufferView" : 23,
            "componentType" : 5121,
            "count" : 4,
            "type" : "VEC4"
        },
        {
            "bufferView" : 24,
            "componentType" : 5126,
            "count" : 4,
            "type" : "VEC4"
        },
        {
            "bufferView" : 26,
            "componentType" : 5126,
            "count" : 2,
            "max" : [
                5
            ],
            "min" : [
                0.041666666666666664
            ],
            "type" : "SCALAR"
        },
        {
            "bufferView" : 27,
            "componentType" : 5126,
            "count" : 2,
            "type" : "VEC3"
        },
        {
            "bufferView" : 28,
            "componentType" : 5126,
            "count" : 120,
            "max" : [
                5
            ],
            "min" : [
                0.041666666666666664
            ],
            "type" : "SCALAR"
        },
        {
            "bufferView" : 29,
            "componentType" : 5126,
            "count" : 120,
            "type" : "VEC4"
        }
    ],
    "bufferViews" : [
        {
            "buffer" : 0,
            "byteLength" : 48,
            "byteOffset" : 0
        },
        {
            "buffer" : 0,
            "byteLength" : 48,
            "byteOffset" : 48
        },
        {
            "buffer" : 0,
            "byteLength" : 32,
            "byteOffset" : 96
        },
        {
            "buffer" : 0,
            "byteLength" : 16,
            "byteOffset" : 128
        },
        {
            "buffer" : 0,
            "byteLength" : 64,
            "byteOffset" : 144
        },
        {
            "buffer" : 0,
            "byteLength" : 12,
            "byteOffset" : 208
        },
        {
            "buffer" : 0,
            "byteLength" : 18933,
            "byteOffset" : 220
        },
        {
            "buffer" : 0,
            "byteLength" : 384,
            "byteOffset" : 19156
        },
        {
            "buffer" : 0,
            "byteLength" : 48,
            "byteOffset" : 19540
        },
        {
            "buffer" : 0,
            "byteLength" : 48,
            "byteOffset" : 19588
        },
        {
            "buffer" : 0,
            "byteLength" : 32,
            "byteOffset" : 19636
        },
        {
            "buffer" : 0,
            "byteLength" : 16,
            "byteOffset" : 19668
        },
        {
            "buffer" : 0,
            "byteLength" : 64,
            "byteOffset" : 19684
        },
        {
            "buffer" : 0,
            "byteLength" : 45298,
            "byteOffset" : 19748
        },
        {
            "buffer" : 0,
            "byteLength" : 48,
            "byteOffset" : 65048
        },
        {
            "buffer" : 0,
            "byteLength" : 48,
            "byteOffset" : 65096
        },
        {
            "buffer" : 0,
            "byteLength" : 32,
            "byteOffset" : 65144
        },
        {
            "buffer" : 0,
            "byteLength" : 16,
            "byteOffset" : 65176
        },
        {
            "buffer" : 0,
            "byteLength" : 64,
            "byteOffset" : 65192
        },
        {
            "buffer" : 0,
            "byteLength" : 136845,
            "byteOffset" : 65256
        },
        {
            "buffer" : 0,
            "byteLength" : 48,
            "byteOffset" : 202104
        },
        {
            "buffer" : 0,
            "byteLength" : 48,
            "byteOffset" : 202152
        },
        {
            "buffer" : 0,
            "byteLength" : 32,
            "byteOffset" : 202200
        },
        {
            "buffer" : 0,
            "byteLength" : 16,
            "byteOffset" : 202232
        },
        {
            "buffer" : 0,
            "byteLength" : 64,
            "byteOffset" : 202248
        },
        {
            "buffer" : 0,
            "byteLength" : 27708,
            "byteOffset" : 202312
        },
        {
            "buffer" : 0,
            "byteLength" : 8,
            "byteOffset" : 230020
        },
        {
            "buffer" : 0,
            "byteLength" : 24,
            "byteOffset" : 230028
        },
        {
            "buffer" : 0,
            "byteLength" : 480,
            "byteOffset" : 230052
        },
        {
            "buffer" : 0,
            "byteLength" : 1920,
            "byteOffset" : 230532
        }
    ],
    "samplers" : [
        {
            "magFilter" : 9729,
            "minFilter" : 9987,
            "wrapS" : 33071,
            "wrapT" : 33071
        }
    ],
    "buffers" : [
        {
            "byteLength" : 232452,
            "uri" : "data:application/octet-stream;base64,"
        }
    ]
}
